<svg width="20" height="20" viewBox="0 0 20 20" fill="none" xmlns="http://www.w3.org/2000/svg">
<path d="M10 4.0625V6.25M10 4.0625C10 3.62985 10.1283 3.20692 10.3687 2.84719C10.609 2.48746 10.9507 2.20708 11.3504 2.04151C11.7501 1.87595 12.1899 1.83263 12.6143 1.91703C13.0386 2.00144 13.4284 2.20978 13.7343 2.51571C14.0402 2.82163 14.2486 3.21141 14.333 3.63574C14.4174 4.06007 14.3741 4.49991 14.2085 4.89962C14.0429 5.29933 13.7625 5.64098 13.4028 5.88134C13.0431 6.12171 12.6201 6.25 12.1875 6.25H10M10 4.0625C10 3.62985 9.87171 3.20692 9.63134 2.84719C9.39098 2.48746 9.04933 2.20708 8.64962 2.04151C8.24991 1.87595 7.81007 1.83263 7.38574 1.91703C6.96141 2.00144 6.57163 2.20978 6.26571 2.51571C5.95978 2.82163 5.75144 3.21141 5.66703 3.63574C5.58263 4.06007 5.62595 4.49991 5.79151 4.89962C5.95708 5.29933 6.23746 5.64098 6.59719 5.88134C6.95692 6.12171 7.37985 6.25 7.8125 6.25H10" stroke="#676562" stroke-width="1.67" stroke-miterlimit="10" stroke-linecap="round"/>
<path d="M16.25 6.25H3.75C3.05964 6.25 2.5 6.80964 2.5 7.5V9.375C2.5 10.0654 3.05964 10.625 3.75 10.625H16.25C16.9404 10.625 17.5 10.0654 17.5 9.375V7.5C17.5 6.80964 16.9404 6.25 16.25 6.25Z" stroke="#676562" stroke-width="1.67" stroke-linecap="round" stroke-linejoin="round"/>
<path d="M16.25 10.625V16.25C16.25 16.7473 16.0525 17.2242 15.7008 17.5758C15.3492 17.9275 14.8723 18.125 14.375 18.125H5.625C5.12772 18.125 4.65081 17.9275 4.29917 17.5758C3.94754 17.2242 3.75 16.7473 3.75 16.25V10.625M10 6.25V18.125" stroke="#676562" stroke-width="1.67" stroke-linecap="round" stroke-linejoin="round"/>
</svg>
