<svg width="20" height="20" viewBox="0 0 20 20" fill="none" xmlns="http://www.w3.org/2000/svg">
<path d="M15.0003 17.4999C15.0003 15.7318 14.2979 14.0361 13.0477 12.7859C11.7975 11.5356 10.1018 10.8333 8.33366 10.8333C6.56555 10.8333 4.86986 11.5356 3.61961 12.7859C2.36937 14.0361 1.66699 15.7318 1.66699 17.4999" stroke="#676562" stroke-width="1.66667" stroke-linecap="round" stroke-linejoin="round"/>
<path d="M8.33366 10.8333C10.6348 10.8333 12.5003 8.96785 12.5003 6.66667C12.5003 4.36548 10.6348 2.5 8.33366 2.5C6.03247 2.5 4.16699 4.36548 4.16699 6.66667C4.16699 8.96785 6.03247 10.8333 8.33366 10.8333Z" stroke="#676562" stroke-width="1.66667" stroke-linecap="round" stroke-linejoin="round"/>
<path d="M18.3333 16.6666C18.3333 13.8583 16.6667 11.2499 15 9.99992C15.5478 9.58889 15.9859 9.04916 16.2755 8.42848C16.565 7.80779 16.6971 7.12531 16.66 6.44142C16.6229 5.75753 16.4178 5.09332 16.0629 4.50758C15.7079 3.92185 15.2141 3.43264 14.625 3.08325" stroke="#676562" stroke-width="1.66667" stroke-linecap="round" stroke-linejoin="round"/>
</svg>
