<svg width="16" height="19" viewBox="0 0 16 19" fill="none" xmlns="http://www.w3.org/2000/svg">
<path d="M14.8333 16.4999C14.8333 14.7318 14.131 13.0361 12.8807 11.7859C11.6305 10.5356 9.93478 9.83325 8.16667 9.83325C6.39856 9.83325 4.70286 10.5356 3.45262 11.7859C2.20238 13.0361 1.5 14.7318 1.5 16.4999" stroke="#676562" stroke-width="1.66667" stroke-linecap="round" stroke-linejoin="round"/>
<path d="M8.16667 9.83333C10.4679 9.83333 12.3333 7.96785 12.3333 5.66667C12.3333 3.36548 10.4679 1.5 8.16667 1.5C5.86548 1.5 4 3.36548 4 5.66667C4 7.96785 5.86548 9.83333 8.16667 9.83333Z" stroke="#676562" stroke-width="1.66667" stroke-linecap="round" stroke-linejoin="round"/>
<path d="M9.23398 12.5H7.43398M9.23398 12.5L9.57058 10.7896C9.60061 10.6994 9.6088 10.6035 9.59447 10.5095C9.58014 10.4156 9.5437 10.3264 9.48817 10.2493C9.43263 10.1722 9.35957 10.1094 9.27501 10.0661C9.19045 10.0227 9.0968 10.0001 9.00178 10H7.66618C7.57116 10.0001 7.47752 10.0227 7.39296 10.0661C7.3084 10.1094 7.23534 10.1722 7.1798 10.2493C7.12426 10.3264 7.08783 10.4156 7.0735 10.5095C7.05917 10.6035 7.06736 10.6994 7.09738 10.7896L7.43398 12.5M9.23398 12.5L9.83398 16.3L8.33398 17.8L6.83398 16.3L7.43398 12.5" stroke="#676562" stroke-width="1.50021" stroke-linecap="round" stroke-linejoin="round"/>
</svg>
